<svg width="376" height="88" viewBox="0 0 376 88" fill="none" xmlns="http://www.w3.org/2000/svg">
<mask id="mask0_113_7" style="mask-type:alpha" maskUnits="userSpaceOnUse" x="0" y="0" width="374" height="87">
<path fill-rule="evenodd" clip-rule="evenodd" d="M5.58716 0.378296L373.427 34.7066L368.558 86.8824L0.717907 52.5541L5.58716 0.378296Z" fill="white"/>
</mask>
<g mask="url(#mask0_113_7)">
<path fill-rule="evenodd" clip-rule="evenodd" d="M22.3624 45.6437C20.4767 45.8912 18.4888 46.1129 17.7244 46.7592C19.501 46.4715 21.6098 46.3127 22.3624 45.6437ZM143.932 32.5327C152.544 32.4857 160.716 32.0512 169.129 31.8283C181.19 31.5079 193.231 31.1669 205.679 31.207C213.327 31.2322 220.705 30.9761 228.455 31.0729C246.532 31.2993 264.477 31.3677 282.784 31.8902C297.478 32.3097 312.133 32.6699 326.9 33.213C339.991 33.695 353.194 34.5329 366.377 35.3019C368.225 35.4094 370.108 35.5789 371.743 36.0164C371.601 36.5344 369.487 35.9199 369.324 36.3714C370.571 36.7124 373.444 36.4073 373.194 37.1003C372.99 37.667 371.439 38.1554 368.735 38.136C364.981 38.1093 361.201 37.5681 357.455 37.4265C340.825 36.7973 324.13 36.0147 307.652 35.6916C297.517 35.4929 287.255 35.1587 277.386 35.2598C271.914 35.3153 266.106 34.8245 260.835 35.0731C259.54 35.134 257.96 34.9233 257.115 35.3806C256.801 35.5502 255.009 35.8797 253.956 35.0734C253.734 34.9033 252.845 34.9835 252.247 34.985C245.782 35.002 238.988 34.7689 232.919 35.0795C227.012 35.3819 220.748 35.2487 214.775 35.4413C210.555 35.5771 205.687 35.0187 201.407 35.2582C199.64 35.3567 197.678 35.3134 196.141 35.578C195.433 35.5743 194.726 35.5712 194.018 35.5675C189.104 35.4405 184.367 35.4751 180.068 35.9089C174.903 35.7717 170.05 35.9062 165.541 36.342C160.223 36.3698 154.874 36.3344 150.371 37.0461C148.5 37.3417 145.886 37.2899 143.669 37.4362C136.119 37.9343 128.611 38.4603 121.053 38.951C119.654 39.0417 118.343 39.3029 116.534 38.9715C112.277 38.9299 108.613 39.284 105.152 39.7722C101.747 40.315 97.5492 40.3601 93.7304 40.6327C88.8096 40.9843 84.0312 41.3183 79.9417 42.1613C76.577 42.8549 71.8442 42.9088 67.9367 43.3998C59.3974 44.474 50.3801 45.3976 43.2124 47.0171C35.4161 48.7784 25.6794 49.6885 18.5168 51.6845C16.6903 52.1938 15.4656 52.8878 13.0705 53.2305C10.6288 53.5792 5.79225 53.2526 3.06644 52.269C0.836984 51.4644 0.172904 50.5729 1.77634 49.8095C4.52351 48.5025 7.99139 47.4059 11.7308 46.4024C27.8208 42.0854 46.9844 39.0877 67.4788 36.6819C87.4995 34.3312 108.574 32.6255 130.481 31.4443C141.63 30.8432 153.14 30.5471 164.567 30.1732C176.323 29.7886 188.125 29.4586 200.212 29.3985C210.976 29.3451 221.862 29.4288 232.731 29.4967C245.459 29.5755 258.221 29.7102 271.09 30.0201C301.957 30.7633 332.93 31.6854 364.53 34.0666C366.66 34.227 368.959 34.0098 371.157 34.7953C369.395 35.2116 367.141 35.0528 364.928 34.8941C348.715 33.7288 332.671 32.9699 316.612 32.3158C292.944 31.3512 269.766 31.105 246.445 30.6438C235.166 30.4208 224.169 30.6045 212.988 30.5347C198.319 30.4419 184.043 30.7457 169.804 31.073C161.288 31.2688 152.827 31.5583 144.844 32.1961C144.264 32.2426 143.793 32.3118 143.985 32.5581C142.053 32.1807 140.619 32.4574 139.078 32.529C127.072 33.0875 115.349 33.8443 103.734 34.6807C96.4436 35.2058 89.4397 35.9058 82.2418 36.4863C74.666 37.0968 67.5992 38.0497 60.6391 39.0134C58.6671 39.2862 55.3931 39.1749 55.0654 40.1464C51.0942 39.8848 49.3211 40.7028 47.0123 41.2556C49.8825 40.9769 52.7898 40.7153 54.9931 40.1135C55.7659 40.0637 56.6106 40.0502 57.3024 39.9592C77.7256 37.2521 99.3861 35.2741 122.011 33.8661C129.304 33.412 136.624 32.9768 143.932 32.5327Z" fill="#FFF72E"/>
</g>
</svg>
